{
  "accessors": [
    {
      "bufferView": 2,
      "componentType": 5126,
      "count": 65532,
      "max": [
        1.8804579973220825,
        5.679708957672119,
        2.105681896209717
      ],
      "min": [
        0.04241502285003662,
        0.0,
        0.033061981201171875
      ],
      "type": "VEC3"
    },
    {
      "bufferView": 2,
      "byteOffset": 786384,
      "componentType": 5126,
      "count": 65532,
      "max": [
        0.9974029660224915,
        0.9999890923500061,
        0.9979128241539001
      ],
      "min": [
        -0.9999954700469971,
        -0.9999351501464844,
        -0.9999647736549377
      ],
      "type": "VEC3"
    },
    {
      "bufferView": 1,
      "componentType": 5126,
      "count": 65532,
      "max": [
        0.9768239855766296,
        0.9570149779319763
      ],
      "min": [
        0.056630998849868774,
        0.042862001806497574
      ],
      "type": "VEC2"
    },
    {
      "bufferView": 0,
      "componentType": 5125,
      "count": 339324,
      "type": "SCALAR"
    },
    {
      "bufferView": 2,
      "byteOffset": 1572768,
      "componentType": 5126,
      "count": 65532,
      "max": [
        1.8062419891357422,
        5.6790266036987305,
        1.656893014907837
      ],
      "min": [
        0.0,
        0.07613992691040039,
        0.0
      ],
      "type": "VEC3"
    },
    {
      "bufferView": 2,
      "byteOffset": 2359152,
      "componentType": 5126,
      "count": 65532,
      "max": [
        0.9979641437530518,
        0.9998881220817566,
        0.999109148979187
      ],
      "min": [
        -0.9999995231628418,
        -0.999859094619751,
        -0.9999856948852539
      ],
      "type": "VEC3"
    },
    {
      "bufferView": 1,
      "byteOffset": 524256,
      "componentType": 5126,
      "count": 65532,
      "max": [
        0.9799379706382751,
        0.9569889903068542
      ],
      "min": [
        0.030959999188780785,
        0.04402599856257439
      ],
      "type": "VEC2"
    },
    {
      "bufferView": 0,
      "byteOffset": 1357296,
      "componentType": 5125,
      "count": 343074,
      "type": "SCALAR"
    },
    {
      "bufferView": 2,
      "byteOffset": 3145536,
      "componentType": 5126,
      "count": 65532,
      "max": [
        2.2832319736480713,
        5.5116987228393555,
        2.1661758422851563
      ],
      "min": [
        0.018684983253479004,
        0.057623863220214844,
        0.0
      ],
      "type": "VEC3"
    },
    {
      "bufferView": 2,
      "byteOffset": 3931920,
      "componentType": 5126,
      "count": 65532,
      "max": [
        0.9999995231628418,
        0.9999998807907104,
        0.9999988079071045
      ],
      "min": [
        -0.9999964237213135,
        -0.999403178691864,
        -0.9999781847000122
      ],
      "type": "VEC3"
    },
    {
      "bufferView": 1,
      "byteOffset": 1048512,
      "componentType": 5126,
      "count": 65532,
      "max": [
        0.9793239831924438,
        0.9546110033988953
      ],
      "min": [
        0.030959999188780785,
        0.05176499858498573
      ],
      "type": "VEC2"
    },
    {
      "bufferView": 0,
      "byteOffset": 2729592,
      "componentType": 5125,
      "count": 335583,
      "type": "SCALAR"
    },
    {
      "bufferView": 2,
      "byteOffset": 4718304,
      "componentType": 5126,
      "count": 65532,
      "max": [
        2.267719030380249,
        5.631587982177734,
        2.6317920684814453
      ],
      "min": [
        0.20976799726486206,
        0.1352849006652832,
        0.17540597915649414
      ],
      "type": "VEC3"
    },
    {
      "bufferView": 2,
      "byteOffset": 5504688,
      "componentType": 5126,
      "count": 65532,
      "max": [
        0.9999969005584717,
        0.9925931692123413,
        0.9999837279319763
      ],
      "min": [
        -0.9342617392539978,
        -0.9847829341888428,
        -0.9999933838844299
      ],
      "type": "VEC3"
    },
    {
      "bufferView": 1,
      "byteOffset": 1572768,
      "componentType": 5126,
      "count": 65532,
      "max": [
        0.9458240270614624,
        0.9110000133514404
      ],
      "min": [
        0.0964289978146553,
        0.07636000216007233
      ],
      "type": "VEC2"
    },
    {
      "bufferView": 0,
      "byteOffset": 4071924,
      "componentType": 5125,
      "count": 347403,
      "type": "SCALAR"
    },
    {
      "bufferView": 2,
      "byteOffset": 6291072,
      "componentType": 5126,
      "count": 65532,
      "max": [
        2.2665820121765137,
        5.651525974273682,
        2.6729650497436523
      ],
      "min": [
        0.15901398658752441,
        0.013856887817382813,
        0.033061981201171875
      ],
      "type": "VEC3"
    },
    {
      "bufferView": 2,
      "byteOffset": 7077456,
      "componentType": 5126,
      "count": 65532,
      "max": [
        0.999995231628418,
        0.999958872795105,
        0.9999786019325256
      ],
      "min": [
        -0.9974029660224915,
        -0.9997950792312622,
        -0.9999933838844299
      ],
      "type": "VEC3"
    },
    {
      "bufferView": 1,
      "byteOffset": 2097024,
      "componentType": 5126,
      "count": 65532,
      "max": [
        0.9768239855766296,
        0.9536960124969482
      ],
      "min": [
        0.021557999774813652,
        0.05832599848508835
      ],
      "type": "VEC2"
    },
    {
      "bufferView": 0,
      "byteOffset": 5461536,
      "componentType": 5125,
      "count": 303393,
      "type": "SCALAR"
    },
    {
      "bufferView": 2,
      "byteOffset": 7863840,
      "componentType": 5126,
      "count": 65532,
      "max": [
        2.2318668365478516,
        5.679708957672119,
        2.6528549194335938
      ],
      "min": [
        0.015512943267822266,
        0.02573990821838379,
        0.044808030128479004
      ],
      "type": "VEC3"
    },
    {
      "bufferView": 2,
      "byteOffset": 8650224,
      "componentType": 5126,
      "count": 65532,
      "max": [
        0.9999502897262573,
        0.9998860955238342,
        0.9998387694358826
      ],
      "min": [
        -0.9999969005584717,
        -0.9987565279006958,
        -0.9999933242797852
      ],
      "type": "VEC3"
    },
    {
      "bufferView": 1,
      "byteOffset": 2621280,
      "componentType": 5126,
      "count": 65532,
      "max": [
        0.9669250249862671,
        0.9570149779319763
      ],
      "min": [
        0.03279099985957146,
        0.042862001806497574
      ],
      "type": "VEC2"
    },
    {
      "bufferView": 0,
      "byteOffset": 6675108,
      "componentType": 5125,
      "count": 333186,
      "type": "SCALAR"
    },
    {
      "bufferView": 2,
      "byteOffset": 9436608,
      "componentType": 5126,
      "count": 15340,
      "max": [
        1.1416159868240356,
        5.625486850738525,
        2.6529979705810547
      ],
      "min": [
        0.015512943267822266,
        0.005166769027709961,
        0.09093093872070313
      ],
      "type": "VEC3"
    },
    {
      "bufferView": 2,
      "byteOffset": 9620688,
      "componentType": 5126,
      "count": 15340,
      "max": [
        0.9120128154754639,
        0.9996727705001831,
        0.9999837279319763
      ],
      "min": [
        -0.9999955296516418,
        -0.9982209801673889,
        -0.9999645948410034
      ],
      "type": "VEC3"
    },
    {
      "bufferView": 1,
      "byteOffset": 3145536,
      "componentType": 5126,
      "count": 15340,
      "max": [
        0.9667230248451233,
        0.9106820225715637
      ],
      "min": [
        0.07082799822092056,
        0.062130000442266464
      ],
      "type": "VEC2"
    },
    {
      "bufferView": 0,
      "byteOffset": 8007852,
      "componentType": 5125,
      "count": 48225,
      "type": "SCALAR"
    }
  ],
  "asset": {
    "extras": {
      "author": "oneillbeck (https://sketchfab.com/oneillbeck)",
      "license": "CC-BY-4.0 (http://creativecommons.org/licenses/by/4.0/)",
      "source": "https://sketchfab.com/3d-models/water-bear-6e0ecc9d43ad4cf9a17efab2900f72ee",
      "title": "Water Bear"
    },
    "generator": "Sketchfab-12.68.0",
    "version": "2.0"
  },
  "bufferViews": [
    {
      "buffer": 0,
      "byteLength": 8200752,
      "name": "floatBufferViews",
      "target": 34963
    },
    {
      "buffer": 0,
      "byteLength": 3268256,
      "byteOffset": 8200752,
      "byteStride": 8,
      "name": "floatBufferViews",
      "target": 34962
    },
    {
      "buffer": 0,
      "byteLength": 9804768,
      "byteOffset": 11469008,
      "byteStride": 12,
      "name": "floatBufferViews",
      "target": 34962
    }
  ],
  "buffers": [
    {
      "byteLength": 21273776,
      "uri": "scene.bin"
    }
  ],
  "images": [
    {
      "uri": "textures/null_baseColor.png"
    }
  ],
  "materials": [
    {
      "doubleSided": true,
      "name": "null",
      "pbrMetallicRoughness": {
        "baseColorTexture": {
          "index": 0
        },
        "metallicFactor": 0.0,
        "roughnessFactor": 0.6
      }
    }
  ],
  "meshes": [
    {
      "name": "Object_0",
      "primitives": [
        {
          "attributes": {
            "NORMAL": 1,
            "POSITION": 0,
            "TEXCOORD_0": 2
          },
          "indices": 3,
          "material": 0,
          "mode": 4
        }
      ]
    },
    {
      "name": "Object_1",
      "primitives": [
        {
          "attributes": {
            "NORMAL": 5,
            "POSITION": 4,
            "TEXCOORD_0": 6
          },
          "indices": 7,
          "material": 0,
          "mode": 4
        }
      ]
    },
    {
      "name": "Object_2",
      "primitives": [
        {
          "attributes": {
            "NORMAL": 9,
            "POSITION": 8,
            "TEXCOORD_0": 10
          },
          "indices": 11,
          "material": 0,
          "mode": 4
        }
      ]
    },
    {
      "name": "Object_3",
      "primitives": [
        {
          "attributes": {
            "NORMAL": 13,
            "POSITION": 12,
            "TEXCOORD_0": 14
          },
          "indices": 15,
          "material": 0,
          "mode": 4
        }
      ]
    },
    {
      "name": "Object_4",
      "primitives": [
        {
          "attributes": {
            "NORMAL": 17,
            "POSITION": 16,
            "TEXCOORD_0": 18
          },
          "indices": 19,
          "material": 0,
          "mode": 4
        }
      ]
    },
    {
      "name": "Object_5",
      "primitives": [
        {
          "attributes": {
            "NORMAL": 21,
            "POSITION": 20,
            "TEXCOORD_0": 22
          },
          "indices": 23,
          "material": 0,
          "mode": 4
        }
      ]
    },
    {
      "name": "Object_6",
      "primitives": [
        {
          "attributes": {
            "NORMAL": 25,
            "POSITION": 24,
            "TEXCOORD_0": 26
          },
          "indices": 27,
          "material": 0,
          "mode": 4
        }
      ]
    }
  ],
  "nodes": [
    {
      "children": [
        1
      ],
      "matrix": [
        1.0,
        0.0,
        0.0,
        0.0,
        0.0,
        2.220446049250313e-16,
        -1.0,
        0.0,
        0.0,
        1.0,
        2.220446049250313e-16,
        0.0,
        0.0,
        0.0,
        0.0,
        1.0
      ],
      "name": "Sketchfab_model"
    },
    {
      "children": [
        2,
        3,
        4,
        5,
        6,
        7,
        8
      ],
      "matrix": [
        1.0,
        0.0,
        0.0,
        0.0,
        0.0,
        1.0,
        0.0,
        0.0,
        0.0,
        0.0,
        1.0,
        0.0,
        -1.1416159868240356,
        -2.379551887512207,
        -1.5179359912872314,
        1.0
      ],
      "name": "draft1.obj.cleaner.gles"
    },
    {
      "mesh": 0,
      "name": "Object_2"
    },
    {
      "mesh": 1,
      "name": "Object_3"
    },
    {
      "mesh": 2,
      "name": "Object_4"
    },
    {
      "mesh": 3,
      "name": "Object_5"
    },
    {
      "mesh": 4,
      "name": "Object_6"
    },
    {
      "mesh": 5,
      "name": "Object_7"
    },
    {
      "mesh": 6,
      "name": "Object_8"
    }
  ],
  "samplers": [
    {
      "magFilter": 9729,
      "minFilter": 9987,
      "wrapS": 10497,
      "wrapT": 10497
    }
  ],
  "scene": 0,
  "scenes": [
    {
      "name": "Sketchfab_Scene",
      "nodes": [
        0
      ]
    }
  ],
  "textures": [
    {
      "sampler": 0,
      "source": 0
    }
  ]
}
